<svg width="375" height="142" viewBox="0 0 375 142" fill="none" xmlns="http://www.w3.org/2000/svg">
<path d="M315.64 1.64281L314.409 -0.489807L312.276 0.741461L313.507 2.87408L315.64 1.64281Z" stroke="#E64D60" stroke-width="0.630746"/>
<path d="M336.784 7.30822L335.552 5.1756L333.42 6.40687L334.651 8.53949L336.784 7.30822Z" stroke="#E64D60" stroke-width="0.630746"/>
<path d="M357.927 12.9736L356.696 10.8409L354.563 12.0722L355.794 14.2048L357.927 12.9736Z" stroke="#E64D60" stroke-width="0.630746"/>
<path d="M225.401 0.124868L224.17 -2.00775L222.037 -0.776483L223.269 1.35614L225.401 0.124868Z" stroke="#E64D60" stroke-width="0.630746"/>
<path d="M246.544 5.79015L245.313 3.65753L243.18 4.8888L244.412 7.02142L246.544 5.79015Z" stroke="#E64D60" stroke-width="0.630746"/>
<path d="M267.688 11.4556L266.457 9.32294L264.324 10.5542L265.555 12.6868L267.688 11.4556Z" fill="#E64D60"/>
<path d="M288.831 17.1209L287.6 14.9883L285.467 16.2195L286.699 18.3522L288.831 17.1209Z" stroke="#E64D60" stroke-width="0.630746"/>
<path d="M309.975 22.7862L308.743 20.6536L306.611 21.8849L307.842 24.0175L309.975 22.7862Z" stroke="#E64D60" stroke-width="0.630746"/>
<path d="M331.118 28.4516L329.887 26.319L327.754 27.5503L328.985 29.6829L331.118 28.4516Z" stroke="#E64D60" stroke-width="0.630746"/>
<path d="M352.261 34.1169L351.03 31.9843L348.898 33.2156L350.129 35.3482L352.261 34.1169Z" fill="#E64D60"/>
<path d="M373.405 39.7823L372.174 37.6497L370.041 38.881L371.272 41.0136L373.405 39.7823Z" stroke="#E64D60" stroke-width="0.630746"/>
<path d="M135.162 -1.39326L133.931 -3.52588L131.798 -2.29461L133.03 -0.161992L135.162 -1.39326Z" stroke="#E64D60" stroke-width="0.630746"/>
<path d="M156.306 4.27208L155.075 2.13947L152.942 3.37073L154.173 5.50335L156.306 4.27208Z" stroke="#E64D60" stroke-width="0.630746"/>
<path d="M177.449 9.93743L176.218 7.80481L174.085 9.03608L175.317 11.1687L177.449 9.93743Z" stroke="#E64D60" stroke-width="0.630746"/>
<path d="M198.593 15.6028L197.361 13.4702L195.229 14.7014L196.46 16.834L198.593 15.6028Z" stroke="#E64D60" stroke-width="0.630746"/>
<path d="M219.736 21.2681L218.505 19.1355L216.372 20.3668L217.603 22.4994L219.736 21.2681Z" stroke="#E64D60" stroke-width="0.630746"/>
<path d="M240.879 26.9335L239.648 24.8008L237.515 26.0321L238.746 28.1647L240.879 26.9335Z" stroke="#E64D60" stroke-width="0.630746"/>
<path d="M262.023 32.5989L260.791 30.4662L258.659 31.6975L259.89 33.8301L262.023 32.5989Z" stroke="#E64D60" stroke-width="0.630746"/>
<path d="M283.166 38.2641L281.935 36.1315L279.802 37.3628L281.033 39.4954L283.166 38.2641Z" fill="#E64D60"/>
<path d="M304.309 43.9295L303.078 41.7969L300.945 43.0281L302.177 45.1608L304.309 43.9295Z" stroke="#E64D60" stroke-width="0.630746"/>
<path d="M325.453 49.5949L324.222 47.4623L322.089 48.6935L323.32 50.8262L325.453 49.5949Z" stroke="#E64D60" stroke-width="0.630746"/>
<path d="M346.596 55.2602L345.365 53.1276L343.232 54.3589L344.464 56.4915L346.596 55.2602Z" stroke="#E64D60" stroke-width="0.630746"/>
<path d="M367.74 60.9256L366.508 58.793L364.376 60.0242L365.607 62.1569L367.74 60.9256Z" stroke="#E64D60" stroke-width="0.630746"/>
<path d="M66.067 2.75414L64.8357 0.621521L62.7031 1.85279L63.9343 3.98541L66.067 2.75414Z" stroke="#E64D60" stroke-width="0.630746"/>
<path d="M87.2103 8.41948L85.9791 6.28687L83.8464 7.51813L85.0777 9.65075L87.2103 8.41948Z" stroke="#E64D60" stroke-width="0.630746"/>
<path d="M108.354 14.0848L107.122 11.9522L104.99 13.1835L106.221 15.3161L108.354 14.0848Z" stroke="#E64D60" stroke-width="0.630746"/>
<path d="M129.497 19.7502L128.266 17.6176L126.133 18.8488L127.364 20.9814L129.497 19.7502Z" stroke="#E64D60" stroke-width="0.630746"/>
<path d="M150.64 25.4155L149.409 23.2829L147.276 24.5142L148.508 26.6468L150.64 25.4155Z" stroke="#E64D60" stroke-width="0.630746"/>
<path d="M171.784 31.0809L170.553 28.9483L168.42 30.1796L169.651 32.3122L171.784 31.0809Z" stroke="#E64D60" stroke-width="0.630746"/>
<path d="M192.927 36.7462L191.696 34.6136L189.563 35.8449L190.795 37.9775L192.927 36.7462Z" stroke="#E64D60" stroke-width="0.630746"/>
<path d="M214.071 42.4115L212.839 40.2789L210.707 41.5102L211.938 43.6428L214.071 42.4115Z" fill="#E64D60"/>
<path d="M235.214 48.0769L233.982 45.9443L231.85 47.1755L233.081 49.3082L235.214 48.0769Z" stroke="#E64D60" stroke-width="0.630746"/>
<path d="M256.357 53.7423L255.126 51.6097L252.993 52.8409L254.225 54.9736L256.357 53.7423Z" stroke="#E64D60" stroke-width="0.630746"/>
<path d="M277.501 59.4076L276.269 57.275L274.137 58.5062L275.368 60.6389L277.501 59.4076Z" stroke="#E64D60" stroke-width="0.630746"/>
<path d="M298.644 65.0729L297.413 62.9403L295.28 64.1716L296.511 66.3042L298.644 65.0729Z" stroke="#E64D60" stroke-width="0.630746"/>
<path d="M319.787 70.7385L318.556 68.6059L316.424 69.8372L317.655 71.9698L319.787 70.7385Z" stroke="#E64D60" stroke-width="0.630746"/>
<path d="M340.931 76.4038L339.699 74.2712L337.567 75.5024L338.798 77.6351L340.931 76.4038Z" stroke="#E64D60" stroke-width="0.630746"/>
<path d="M362.074 82.0692L360.843 79.9366L358.71 81.1679L359.942 83.3005L362.074 82.0692Z" stroke="#E64D60" stroke-width="0.630746"/>
<path d="M18.1149 12.5667L16.8837 10.4341L14.751 11.6654L15.9823 13.798L18.1149 12.5667Z" stroke="#E64D60" stroke-width="0.630746"/>
<path d="M39.2582 18.232L38.0269 16.0994L35.8943 17.3306L37.1256 19.4633L39.2582 18.232Z" fill="#E64D60"/>
<path d="M60.4017 23.8974L59.1704 21.7648L57.0378 22.996L58.2691 25.1287L60.4017 23.8974Z" stroke="#E64D60" stroke-width="0.630746"/>
<path d="M81.545 29.5627L80.3137 27.4301L78.1811 28.6614L79.4124 30.794L81.545 29.5627Z" stroke="#E64D60" stroke-width="0.630746"/>
<path d="M102.688 35.2281L101.457 33.0955L99.3246 34.3267L100.556 36.4593L102.688 35.2281Z" stroke="#E64D60" stroke-width="0.630746"/>
<path d="M123.832 40.8934L122.6 38.7608L120.468 39.9921L121.699 42.1247L123.832 40.8934Z" stroke="#E64D60" stroke-width="0.630746"/>
<path d="M144.975 46.5588L143.744 44.4261L141.611 45.6574L142.842 47.79L144.975 46.5588Z" fill="#E64D60"/>
<path d="M166.119 52.2241L164.887 50.0915L162.755 51.3228L163.986 53.4554L166.119 52.2241Z" stroke="#E64D60" stroke-width="0.630746"/>
<path d="M187.262 57.8895L186.031 55.7568L183.898 56.9881L185.129 59.1207L187.262 57.8895Z" stroke="#E64D60" stroke-width="0.630746"/>
<path d="M208.405 63.5548L207.174 61.4222L205.041 62.6534L206.273 64.7861L208.405 63.5548Z" stroke="#E64D60" stroke-width="0.630746"/>
<path d="M229.548 69.2201L228.317 67.0875L226.185 68.3188L227.416 70.4514L229.548 69.2201Z" stroke="#E64D60" stroke-width="0.630746"/>
<path d="M250.692 74.8855L249.461 72.7529L247.328 73.9842L248.559 76.1168L250.692 74.8855Z" stroke="#E64D60" stroke-width="0.630746"/>
<path d="M271.835 80.5508L270.604 78.4182L268.471 79.6495L269.703 81.7821L271.835 80.5508Z" fill="#E64D60"/>
<path d="M292.979 86.2162L291.747 84.0836L289.615 85.3148L290.846 87.4474L292.979 86.2162Z" fill="#E64D60"/>
<path d="M314.122 91.8818L312.891 89.7491L310.758 90.9804L311.989 93.113L314.122 91.8818Z" stroke="#E64D60" stroke-width="0.630746"/>
<path d="M335.265 97.5471L334.034 95.4145L331.901 96.6458L333.133 98.7784L335.265 97.5471Z" fill="#E64D60"/>
<path d="M356.409 103.212L355.178 101.08L353.045 102.311L354.276 104.444L356.409 103.212Z" stroke="#E64D60" stroke-width="0.630746"/>
<path d="M377.552 108.878L376.321 106.745L374.188 107.976L375.42 110.109L377.552 108.878Z" stroke="#E64D60" stroke-width="0.630746"/>
<path d="M12.4496 33.7101L11.2183 31.5775L9.0857 32.8088L10.317 34.9414L12.4496 33.7101Z" stroke="#E64D60" stroke-width="0.630746"/>
<path d="M33.5928 39.3755L32.3616 37.2429L30.229 38.4741L31.4602 40.6067L33.5928 39.3755Z" stroke="#E64D60" stroke-width="0.630746"/>
<path d="M54.7363 45.0408L53.505 42.9082L51.3724 44.1395L52.6037 46.2721L54.7363 45.0408Z" stroke="#E64D60" stroke-width="0.630746"/>
<path d="M75.8796 50.7062L74.6484 48.5735L72.5158 49.8048L73.747 51.9374L75.8796 50.7062Z" stroke="#E64D60" stroke-width="0.630746"/>
<path d="M97.0231 56.3715L95.7918 54.2389L93.6592 55.4702L94.8905 57.6028L97.0231 56.3715Z" stroke="#E64D60" stroke-width="0.630746"/>
<path d="M118.166 62.0369L116.935 59.9042L114.802 61.1355L116.034 63.2681L118.166 62.0369Z" stroke="#E64D60" stroke-width="0.630746"/>
<path d="M139.31 67.7022L138.078 65.5696L135.946 66.8008L137.177 68.9335L139.31 67.7022Z" fill="#E64D60"/>
<path d="M160.453 73.3676L159.222 71.235L157.089 72.4663L158.321 74.5989L160.453 73.3676Z" stroke="#E64D60" stroke-width="0.630746"/>
<path d="M181.597 79.0329L180.365 76.9003L178.233 78.1315L179.464 80.2642L181.597 79.0329Z" stroke="#E64D60" stroke-width="0.630746"/>
<path d="M202.74 84.6982L201.509 82.5656L199.376 83.7969L200.607 85.9295L202.74 84.6982Z" stroke="#E64D60" stroke-width="0.630746"/>
<path d="M223.883 90.3636L222.652 88.231L220.519 89.4622L221.75 91.5948L223.883 90.3636Z" stroke="#E64D60" stroke-width="0.630746"/>
<path d="M245.027 96.029L243.795 93.8964L241.663 95.1276L242.894 97.2602L245.027 96.029Z" stroke="#E64D60" stroke-width="0.630746"/>
<path d="M266.17 101.694L264.939 99.5616L262.806 100.793L264.037 102.926L266.17 101.694Z" stroke="#E64D60" stroke-width="0.630746"/>
<path d="M287.313 107.36L286.082 105.227L283.949 106.458L285.181 108.591L287.313 107.36Z" fill="#E64D60"/>
<path d="M308.457 113.025L307.225 110.893L305.093 112.124L306.324 114.256L308.457 113.025Z" fill="#E64D60"/>
<path d="M329.6 118.69L328.369 116.558L326.236 117.789L327.467 119.922L329.6 118.69Z" stroke="#E64D60" stroke-width="0.630746"/>
<path d="M350.743 124.356L349.512 122.223L347.38 123.454L348.611 125.587L350.743 124.356Z" stroke="#E64D60" stroke-width="0.630746"/>
<path d="M371.887 130.021L370.656 127.888L368.523 129.12L369.754 131.252L371.887 130.021Z" stroke="#E64D60" stroke-width="0.630746"/>
<path d="M6.78419 54.8536L5.55292 52.7209L3.4203 53.9522L4.65157 56.0848L6.78419 54.8536Z" fill="#E64D60"/>
<path d="M27.9274 60.5189L26.6962 58.3863L24.5635 59.6176L25.7948 61.7502L27.9274 60.5189Z" stroke="#E64D60" stroke-width="0.630746"/>
<path d="M49.0709 66.1843L47.8397 64.0516L45.707 65.2829L46.9383 67.4155L49.0709 66.1843Z" stroke="#E64D60" stroke-width="0.630746"/>
<path d="M70.2142 71.8496L68.983 69.717L66.8504 70.9482L68.0816 73.0809L70.2142 71.8496Z" stroke="#E64D60" stroke-width="0.630746"/>
<path d="M91.3577 77.515L90.1265 75.3824L87.9938 76.6137L89.2251 78.7463L91.3577 77.515Z" stroke="#E64D60" stroke-width="0.630746"/>
<path d="M112.501 83.1803L111.27 81.0477L109.137 82.2789L110.368 84.4116L112.501 83.1803Z" stroke="#E64D60" stroke-width="0.630746"/>
<path d="M133.644 88.8456L132.413 86.713L130.28 87.9443L131.512 90.0769L133.644 88.8456Z" stroke="#E64D60" stroke-width="0.630746"/>
<path d="M154.788 94.511L153.557 92.3784L151.424 93.6097L152.655 95.7423L154.788 94.511Z" stroke="#E64D60" stroke-width="0.630746"/>
<path d="M175.931 100.176L174.7 98.0438L172.567 99.275L173.799 101.408L175.931 100.176Z" stroke="#E64D60" stroke-width="0.630746"/>
<path d="M197.074 105.842L195.843 103.709L193.711 104.94L194.942 107.073L197.074 105.842Z" fill="#E64D60"/>
<path d="M218.218 111.507L216.986 109.374L214.854 110.606L216.085 112.738L218.218 111.507Z" stroke="#E64D60" stroke-width="0.630746"/>
<path d="M239.361 117.172L238.13 115.04L235.997 116.271L237.229 118.404L239.361 117.172Z" fill="#E64D60"/>
<path d="M260.504 122.838L259.273 120.705L257.141 121.936L258.372 124.069L260.504 122.838Z" stroke="#E64D60" stroke-width="0.630746"/>
<path d="M281.648 128.503L280.417 126.37L278.284 127.602L279.515 129.734L281.648 128.503Z" stroke="#E64D60" stroke-width="0.630746"/>
<path d="M302.791 134.168L301.56 132.036L299.427 133.267L300.659 135.4L302.791 134.168Z" stroke="#E64D60" stroke-width="0.630746"/>
<path d="M323.935 139.834L322.703 137.701L320.571 138.932L321.802 141.065L323.935 139.834Z" stroke="#E64D60" stroke-width="0.630746"/>
<path d="M1.11884 75.997L-0.112427 73.8644L-2.24505 75.0956L-1.01378 77.2283L1.11884 75.997Z" stroke="#E64D60" stroke-width="0.630746"/>
<path d="M22.2623 81.6623L21.031 79.5297L18.8984 80.761L20.1297 82.8936L22.2623 81.6623Z" stroke="#E64D60" stroke-width="0.630746"/>
<path d="M43.4056 87.3277L42.1743 85.1951L40.0417 86.4263L41.273 88.559L43.4056 87.3277Z" stroke="#E64D60" stroke-width="0.630746"/>
<path d="M64.5489 92.993L63.3176 90.8604L61.185 92.0917L62.4163 94.2243L64.5489 92.993Z" stroke="#E64D60" stroke-width="0.630746"/>
<path d="M85.6924 98.6584L84.4611 96.5258L82.3285 97.757L83.5598 99.8896L85.6924 98.6584Z" stroke="#E64D60" stroke-width="0.630746"/>
<path d="M106.836 104.324L105.604 102.191L103.472 103.422L104.703 105.555L106.836 104.324Z" fill="#E64D60"/>
<path d="M127.979 109.989L126.748 107.856L124.615 109.088L125.846 111.22L127.979 109.989Z" stroke="#E64D60" stroke-width="0.630746"/>
<path d="M149.122 115.654L147.891 113.522L145.759 114.753L146.99 116.886L149.122 115.654Z" stroke="#E64D60" stroke-width="0.630746"/>
<path d="M170.266 121.32L169.035 119.187L166.902 120.418L168.133 122.551L170.266 121.32Z" stroke="#E64D60" stroke-width="0.630746"/>
<path d="M191.409 126.985L190.178 124.852L188.045 126.084L189.277 128.216L191.409 126.985Z" stroke="#E64D60" stroke-width="0.630746"/>
<path d="M212.552 132.65L211.321 130.518L209.189 131.749L210.42 133.882L212.552 132.65Z" fill="#E64D60"/>
<path d="M233.696 138.316L232.465 136.183L230.332 137.414L231.563 139.547L233.696 138.316Z" stroke="#E64D60" stroke-width="0.630746"/>
<path d="M254.839 143.981L253.608 141.849L251.475 143.08L252.706 145.212L254.839 143.981Z" stroke="#E64D60" stroke-width="0.630746"/>
<path d="M16.5968 102.805L15.3655 100.673L13.2329 101.904L14.4642 104.037L16.5968 102.805Z" stroke="#E64D60" stroke-width="0.630746"/>
<path d="M37.7402 108.471L36.509 106.338L34.3764 107.57L35.6076 109.702L37.7402 108.471Z" stroke="#E64D60" stroke-width="0.630746"/>
<path d="M58.8836 114.136L57.6523 112.004L55.5197 113.235L56.751 115.367L58.8836 114.136Z" stroke="#E64D60" stroke-width="0.630746"/>
<path d="M80.027 119.802L78.7958 117.669L76.6632 118.9L77.8944 121.033L80.027 119.802Z" stroke="#E64D60" stroke-width="0.630746"/>
<path d="M101.17 125.467L99.939 123.334L97.8063 124.566L99.0376 126.698L101.17 125.467Z" fill="#E64D60"/>
<path d="M122.314 131.132L121.082 129L118.95 130.231L120.181 132.364L122.314 131.132Z" stroke="#E64D60" stroke-width="0.630746"/>
<path d="M143.457 136.798L142.226 134.665L140.093 135.896L141.325 138.029L143.457 136.798Z" stroke="#E64D60" stroke-width="0.630746"/>
<path d="M164.6 142.463L163.369 140.33L161.237 141.562L162.468 143.694L164.6 142.463Z" stroke="#E64D60" stroke-width="0.630746"/>
<path d="M10.9315 123.949L9.7002 121.816L7.56758 123.047L8.79884 125.18L10.9315 123.949Z" stroke="#E64D60" stroke-width="0.630746"/>
<path d="M32.075 129.614L30.8437 127.482L28.7111 128.713L29.9423 130.845L32.075 129.614Z" stroke="#E64D60" stroke-width="0.630746"/>
<path d="M53.2183 135.28L51.987 133.147L49.8544 134.378L51.0856 136.511L53.2183 135.28Z" fill="#E64D60"/>
<path d="M74.3617 140.945L73.1304 138.812L70.9978 140.044L72.2291 142.176L74.3617 140.945Z" stroke="#E64D60" stroke-width="0.630746"/>
</svg>
